<mxfile host="app.diagrams.net" modified="2023-02-16T01:03:57.947Z" agent="5.0 (Macintosh; Intel Mac OS X 10_15_7) AppleWebKit/537.36 (KHTML, like Gecko) Chrome/109.0.0.0 Safari/537.36" etag="zEOqExItN0hqqIcByCBY" version="20.8.20" type="github">
  <diagram id="R2lEEEUBdFMjLlhIrx00" name="Page-1">
    <mxGraphModel dx="1060" dy="1657" grid="1" gridSize="10" guides="1" tooltips="1" connect="1" arrows="1" fold="1" page="1" pageScale="1" pageWidth="850" pageHeight="1100" math="0" shadow="0" extFonts="Permanent Marker^https://fonts.googleapis.com/css?family=Permanent+Marker">
      <root>
        <mxCell id="0" />
        <mxCell id="1" parent="0" />
        <mxCell id="DPA5Kg4C4uu_E68mrYAT-11" value="Airline" style="whiteSpace=wrap;html=1;align=center;" vertex="1" parent="1">
          <mxGeometry x="180" y="70" width="100" height="40" as="geometry" />
        </mxCell>
        <mxCell id="DPA5Kg4C4uu_E68mrYAT-12" value="Airport" style="whiteSpace=wrap;html=1;align=center;" vertex="1" parent="1">
          <mxGeometry x="50" y="240" width="100" height="40" as="geometry" />
        </mxCell>
        <mxCell id="DPA5Kg4C4uu_E68mrYAT-13" value="Receipt" style="whiteSpace=wrap;html=1;align=center;" vertex="1" parent="1">
          <mxGeometry x="490" y="360" width="100" height="40" as="geometry" />
        </mxCell>
        <mxCell id="DPA5Kg4C4uu_E68mrYAT-14" value="Airplane" style="whiteSpace=wrap;html=1;align=center;" vertex="1" parent="1">
          <mxGeometry x="230" y="-150" width="100" height="40" as="geometry" />
        </mxCell>
        <mxCell id="DPA5Kg4C4uu_E68mrYAT-15" value="Ticket" style="whiteSpace=wrap;html=1;align=center;" vertex="1" parent="1">
          <mxGeometry x="420" y="70" width="100" height="40" as="geometry" />
        </mxCell>
        <mxCell id="DPA5Kg4C4uu_E68mrYAT-17" value="Staff" style="whiteSpace=wrap;html=1;align=center;" vertex="1" parent="1">
          <mxGeometry x="710" y="200" width="100" height="40" as="geometry" />
        </mxCell>
        <mxCell id="DPA5Kg4C4uu_E68mrYAT-18" value="Person" style="whiteSpace=wrap;html=1;align=center;" vertex="1" parent="1">
          <mxGeometry x="680" y="30" width="100" height="40" as="geometry" />
        </mxCell>
        <mxCell id="DPA5Kg4C4uu_E68mrYAT-19" value="Customer" style="whiteSpace=wrap;html=1;align=center;" vertex="1" parent="1">
          <mxGeometry x="580" y="160" width="100" height="40" as="geometry" />
        </mxCell>
        <mxCell id="DPA5Kg4C4uu_E68mrYAT-20" value="License" style="whiteSpace=wrap;html=1;align=center;" vertex="1" parent="1">
          <mxGeometry x="710" y="400" width="100" height="40" as="geometry" />
        </mxCell>
        <mxCell id="DPA5Kg4C4uu_E68mrYAT-21" value="is a" style="triangle;whiteSpace=wrap;html=1;direction=south;rotation=-180;" vertex="1" parent="1">
          <mxGeometry x="690" y="90" width="80" height="60" as="geometry" />
        </mxCell>
        <mxCell id="DPA5Kg4C4uu_E68mrYAT-22" value="" style="endArrow=none;html=1;rounded=0;exitX=0.5;exitY=1;exitDx=0;exitDy=0;entryX=1;entryY=0.5;entryDx=0;entryDy=0;" edge="1" parent="1" source="DPA5Kg4C4uu_E68mrYAT-18" target="DPA5Kg4C4uu_E68mrYAT-21">
          <mxGeometry relative="1" as="geometry">
            <mxPoint x="730" y="60" as="sourcePoint" />
            <mxPoint x="680" y="190" as="targetPoint" />
          </mxGeometry>
        </mxCell>
        <mxCell id="DPA5Kg4C4uu_E68mrYAT-23" value="" style="endArrow=none;html=1;rounded=0;exitX=1;exitY=0;exitDx=0;exitDy=0;entryX=0.043;entryY=0.042;entryDx=0;entryDy=0;entryPerimeter=0;" edge="1" parent="1" source="DPA5Kg4C4uu_E68mrYAT-19" target="DPA5Kg4C4uu_E68mrYAT-21">
          <mxGeometry relative="1" as="geometry">
            <mxPoint x="530" y="248.89" as="sourcePoint" />
            <mxPoint x="690" y="248.89" as="targetPoint" />
          </mxGeometry>
        </mxCell>
        <mxCell id="DPA5Kg4C4uu_E68mrYAT-27" value="" style="endArrow=none;html=1;rounded=0;entryX=1;entryY=0;entryDx=0;entryDy=0;exitX=0.029;exitY=0.965;exitDx=0;exitDy=0;exitPerimeter=0;" edge="1" parent="1" source="DPA5Kg4C4uu_E68mrYAT-21" target="DPA5Kg4C4uu_E68mrYAT-17">
          <mxGeometry relative="1" as="geometry">
            <mxPoint x="780" y="69.05000000000001" as="sourcePoint" />
            <mxPoint x="940" y="69.05000000000001" as="targetPoint" />
          </mxGeometry>
        </mxCell>
        <mxCell id="DPA5Kg4C4uu_E68mrYAT-29" value="" style="endArrow=none;html=1;rounded=0;dashed=1;dashPattern=1 2;entryX=0.5;entryY=1;entryDx=0;entryDy=0;exitX=0.5;exitY=0;exitDx=0;exitDy=0;" edge="1" parent="1" source="DPA5Kg4C4uu_E68mrYAT-31" target="DPA5Kg4C4uu_E68mrYAT-17">
          <mxGeometry relative="1" as="geometry">
            <mxPoint x="380" y="320" as="sourcePoint" />
            <mxPoint x="540" y="320" as="targetPoint" />
          </mxGeometry>
        </mxCell>
        <mxCell id="DPA5Kg4C4uu_E68mrYAT-30" value="M" style="resizable=0;html=1;align=right;verticalAlign=bottom;" connectable="0" vertex="1" parent="DPA5Kg4C4uu_E68mrYAT-29">
          <mxGeometry x="1" relative="1" as="geometry">
            <mxPoint y="40" as="offset" />
          </mxGeometry>
        </mxCell>
        <mxCell id="DPA5Kg4C4uu_E68mrYAT-31" value="has" style="shape=rhombus;perimeter=rhombusPerimeter;whiteSpace=wrap;html=1;align=center;" vertex="1" parent="1">
          <mxGeometry x="700" y="290" width="120" height="60" as="geometry" />
        </mxCell>
        <mxCell id="DPA5Kg4C4uu_E68mrYAT-37" value="" style="endArrow=none;html=1;rounded=0;entryX=0.5;entryY=1;entryDx=0;entryDy=0;exitX=0.5;exitY=0;exitDx=0;exitDy=0;" edge="1" parent="1" source="DPA5Kg4C4uu_E68mrYAT-20" target="DPA5Kg4C4uu_E68mrYAT-31">
          <mxGeometry relative="1" as="geometry">
            <mxPoint x="460" y="380" as="sourcePoint" />
            <mxPoint x="620" y="380" as="targetPoint" />
          </mxGeometry>
        </mxCell>
        <mxCell id="DPA5Kg4C4uu_E68mrYAT-38" value="1" style="resizable=0;html=1;align=right;verticalAlign=bottom;" connectable="0" vertex="1" parent="DPA5Kg4C4uu_E68mrYAT-37">
          <mxGeometry x="1" relative="1" as="geometry">
            <mxPoint y="40" as="offset" />
          </mxGeometry>
        </mxCell>
        <mxCell id="DPA5Kg4C4uu_E68mrYAT-40" value="Schedule" style="whiteSpace=wrap;html=1;align=center;" vertex="1" parent="1">
          <mxGeometry x="30" y="20" width="100" height="40" as="geometry" />
        </mxCell>
        <mxCell id="DPA5Kg4C4uu_E68mrYAT-42" value="owns" style="shape=rhombus;perimeter=rhombusPerimeter;whiteSpace=wrap;html=1;align=center;" vertex="1" parent="1">
          <mxGeometry x="220" y="-60" width="120" height="60" as="geometry" />
        </mxCell>
        <mxCell id="DPA5Kg4C4uu_E68mrYAT-43" value="" style="endArrow=none;html=1;rounded=0;entryX=0.5;entryY=0;entryDx=0;entryDy=0;exitX=0.5;exitY=1;exitDx=0;exitDy=0;" edge="1" parent="1" source="DPA5Kg4C4uu_E68mrYAT-14" target="DPA5Kg4C4uu_E68mrYAT-42">
          <mxGeometry relative="1" as="geometry">
            <mxPoint x="60" y="-210" as="sourcePoint" />
            <mxPoint y="-70" as="targetPoint" />
          </mxGeometry>
        </mxCell>
        <mxCell id="DPA5Kg4C4uu_E68mrYAT-44" value="1" style="resizable=0;html=1;align=right;verticalAlign=bottom;" connectable="0" vertex="1" parent="DPA5Kg4C4uu_E68mrYAT-43">
          <mxGeometry x="1" relative="1" as="geometry">
            <mxPoint y="-10" as="offset" />
          </mxGeometry>
        </mxCell>
        <mxCell id="DPA5Kg4C4uu_E68mrYAT-47" value="" style="endArrow=none;html=1;rounded=0;exitX=0.5;exitY=1;exitDx=0;exitDy=0;entryX=0.5;entryY=0;entryDx=0;entryDy=0;" edge="1" parent="1" source="DPA5Kg4C4uu_E68mrYAT-49" target="DPA5Kg4C4uu_E68mrYAT-12">
          <mxGeometry relative="1" as="geometry">
            <mxPoint x="-60" y="70" as="sourcePoint" />
            <mxPoint x="100" y="70" as="targetPoint" />
          </mxGeometry>
        </mxCell>
        <mxCell id="DPA5Kg4C4uu_E68mrYAT-48" value="M" style="resizable=0;html=1;align=right;verticalAlign=bottom;" connectable="0" vertex="1" parent="DPA5Kg4C4uu_E68mrYAT-47">
          <mxGeometry x="1" relative="1" as="geometry">
            <mxPoint y="-10" as="offset" />
          </mxGeometry>
        </mxCell>
        <mxCell id="DPA5Kg4C4uu_E68mrYAT-49" value="has" style="shape=rhombus;perimeter=rhombusPerimeter;whiteSpace=wrap;html=1;align=center;" vertex="1" parent="1">
          <mxGeometry x="40" y="140" width="120" height="60" as="geometry" />
        </mxCell>
        <mxCell id="DPA5Kg4C4uu_E68mrYAT-50" value="" style="endArrow=none;html=1;rounded=0;dashed=1;dashPattern=1 2;exitX=0.5;exitY=0;exitDx=0;exitDy=0;entryX=0;entryY=0.5;entryDx=0;entryDy=0;" edge="1" parent="1" source="DPA5Kg4C4uu_E68mrYAT-49" target="DPA5Kg4C4uu_E68mrYAT-11">
          <mxGeometry relative="1" as="geometry">
            <mxPoint x="210" y="240" as="sourcePoint" />
            <mxPoint x="380" y="260" as="targetPoint" />
          </mxGeometry>
        </mxCell>
        <mxCell id="DPA5Kg4C4uu_E68mrYAT-51" value="M" style="resizable=0;html=1;align=right;verticalAlign=bottom;" connectable="0" vertex="1" parent="DPA5Kg4C4uu_E68mrYAT-50">
          <mxGeometry x="1" relative="1" as="geometry">
            <mxPoint x="-30" y="30" as="offset" />
          </mxGeometry>
        </mxCell>
        <mxCell id="DPA5Kg4C4uu_E68mrYAT-52" value="Flight" style="shape=ext;margin=3;double=1;whiteSpace=wrap;html=1;align=center;" vertex="1" parent="1">
          <mxGeometry x="380" y="170" width="100" height="40" as="geometry" />
        </mxCell>
        <mxCell id="DPA5Kg4C4uu_E68mrYAT-54" value="" style="endArrow=none;html=1;rounded=0;exitX=1;exitY=0;exitDx=0;exitDy=0;entryX=0.5;entryY=1;entryDx=0;entryDy=0;" edge="1" parent="1" source="DPA5Kg4C4uu_E68mrYAT-11" target="DPA5Kg4C4uu_E68mrYAT-42">
          <mxGeometry relative="1" as="geometry">
            <mxPoint x="269.52" y="70" as="sourcePoint" />
            <mxPoint x="270" as="targetPoint" />
          </mxGeometry>
        </mxCell>
        <mxCell id="DPA5Kg4C4uu_E68mrYAT-55" value="M" style="resizable=0;html=1;align=right;verticalAlign=bottom;" connectable="0" vertex="1" parent="DPA5Kg4C4uu_E68mrYAT-54">
          <mxGeometry x="1" relative="1" as="geometry">
            <mxPoint y="50" as="offset" />
          </mxGeometry>
        </mxCell>
        <mxCell id="DPA5Kg4C4uu_E68mrYAT-58" value="checks" style="shape=rhombus;perimeter=rhombusPerimeter;whiteSpace=wrap;html=1;align=center;" vertex="1" parent="1">
          <mxGeometry x="410" y="-60" width="120" height="60" as="geometry" />
        </mxCell>
        <mxCell id="DPA5Kg4C4uu_E68mrYAT-61" value="" style="endArrow=none;html=1;rounded=0;dashed=1;dashPattern=1 2;entryX=0.5;entryY=1;entryDx=0;entryDy=0;exitX=0.5;exitY=0;exitDx=0;exitDy=0;" edge="1" parent="1" source="DPA5Kg4C4uu_E68mrYAT-15" target="DPA5Kg4C4uu_E68mrYAT-58">
          <mxGeometry relative="1" as="geometry">
            <mxPoint x="510" y="70" as="sourcePoint" />
            <mxPoint x="450" as="targetPoint" />
          </mxGeometry>
        </mxCell>
        <mxCell id="DPA5Kg4C4uu_E68mrYAT-62" value="1" style="resizable=0;html=1;align=right;verticalAlign=bottom;" connectable="0" vertex="1" parent="DPA5Kg4C4uu_E68mrYAT-61">
          <mxGeometry x="1" relative="1" as="geometry">
            <mxPoint x="10" y="50" as="offset" />
          </mxGeometry>
        </mxCell>
        <mxCell id="DPA5Kg4C4uu_E68mrYAT-64" value="" style="endArrow=none;html=1;rounded=0;exitX=0.5;exitY=0;exitDx=0;exitDy=0;entryX=1;entryY=0;entryDx=0;entryDy=0;" edge="1" parent="1" source="DPA5Kg4C4uu_E68mrYAT-58" target="DPA5Kg4C4uu_E68mrYAT-14">
          <mxGeometry relative="1" as="geometry">
            <mxPoint x="290" y="80" as="sourcePoint" />
            <mxPoint x="290" y="10" as="targetPoint" />
          </mxGeometry>
        </mxCell>
        <mxCell id="DPA5Kg4C4uu_E68mrYAT-65" value="M" style="resizable=0;html=1;align=right;verticalAlign=bottom;" connectable="0" vertex="1" parent="DPA5Kg4C4uu_E68mrYAT-64">
          <mxGeometry x="1" relative="1" as="geometry">
            <mxPoint x="60" y="40" as="offset" />
          </mxGeometry>
        </mxCell>
        <mxCell id="DPA5Kg4C4uu_E68mrYAT-67" value="has" style="shape=rhombus;double=1;perimeter=rhombusPerimeter;whiteSpace=wrap;html=1;align=center;" vertex="1" parent="1">
          <mxGeometry x="290" y="20" width="120" height="60" as="geometry" />
        </mxCell>
        <mxCell id="DPA5Kg4C4uu_E68mrYAT-68" value="has" style="shape=rhombus;double=1;perimeter=rhombusPerimeter;whiteSpace=wrap;html=1;align=center;" vertex="1" parent="1">
          <mxGeometry x="220" y="140" width="120" height="60" as="geometry" />
        </mxCell>
        <mxCell id="DPA5Kg4C4uu_E68mrYAT-71" value="" style="endArrow=none;html=1;rounded=0;exitX=0;exitY=0;exitDx=0;exitDy=0;entryX=0.5;entryY=1;entryDx=0;entryDy=0;" edge="1" parent="1" source="DPA5Kg4C4uu_E68mrYAT-52" target="DPA5Kg4C4uu_E68mrYAT-67">
          <mxGeometry relative="1" as="geometry">
            <mxPoint x="290" y="80" as="sourcePoint" />
            <mxPoint x="290" y="10" as="targetPoint" />
          </mxGeometry>
        </mxCell>
        <mxCell id="DPA5Kg4C4uu_E68mrYAT-72" value="M" style="resizable=0;html=1;align=right;verticalAlign=bottom;" connectable="0" vertex="1" parent="DPA5Kg4C4uu_E68mrYAT-71">
          <mxGeometry x="1" relative="1" as="geometry">
            <mxPoint x="20" y="60" as="offset" />
          </mxGeometry>
        </mxCell>
        <mxCell id="DPA5Kg4C4uu_E68mrYAT-73" value="" style="endArrow=none;html=1;rounded=0;dashed=1;dashPattern=1 2;entryX=1;entryY=1;entryDx=0;entryDy=0;exitX=1;exitY=0;exitDx=0;exitDy=0;" edge="1" parent="1" source="DPA5Kg4C4uu_E68mrYAT-67" target="DPA5Kg4C4uu_E68mrYAT-14">
          <mxGeometry relative="1" as="geometry">
            <mxPoint x="390" y="-20" as="sourcePoint" />
            <mxPoint x="330" y="-90" as="targetPoint" />
          </mxGeometry>
        </mxCell>
        <mxCell id="DPA5Kg4C4uu_E68mrYAT-74" value="M" style="resizable=0;html=1;align=right;verticalAlign=bottom;" connectable="0" vertex="1" parent="DPA5Kg4C4uu_E68mrYAT-73">
          <mxGeometry x="1" relative="1" as="geometry">
            <mxPoint x="40" y="90" as="offset" />
          </mxGeometry>
        </mxCell>
        <mxCell id="DPA5Kg4C4uu_E68mrYAT-76" value="" style="endArrow=none;html=1;rounded=0;dashed=1;dashPattern=1 2;entryX=0.5;entryY=1;entryDx=0;entryDy=0;exitX=0.5;exitY=0;exitDx=0;exitDy=0;" edge="1" parent="1" source="DPA5Kg4C4uu_E68mrYAT-68" target="DPA5Kg4C4uu_E68mrYAT-11">
          <mxGeometry relative="1" as="geometry">
            <mxPoint x="390" y="45" as="sourcePoint" />
            <mxPoint x="340" y="-100" as="targetPoint" />
          </mxGeometry>
        </mxCell>
        <mxCell id="DPA5Kg4C4uu_E68mrYAT-77" value="M" style="resizable=0;html=1;align=right;verticalAlign=bottom;" connectable="0" vertex="1" parent="DPA5Kg4C4uu_E68mrYAT-76">
          <mxGeometry x="1" relative="1" as="geometry">
            <mxPoint x="30" y="30" as="offset" />
          </mxGeometry>
        </mxCell>
        <mxCell id="DPA5Kg4C4uu_E68mrYAT-78" value="" style="endArrow=none;html=1;rounded=0;entryX=1;entryY=0.5;entryDx=0;entryDy=0;exitX=0;exitY=0.5;exitDx=0;exitDy=0;" edge="1" parent="1" source="DPA5Kg4C4uu_E68mrYAT-52" target="DPA5Kg4C4uu_E68mrYAT-68">
          <mxGeometry relative="1" as="geometry">
            <mxPoint x="360" y="200" as="sourcePoint" />
            <mxPoint x="360" y="90" as="targetPoint" />
          </mxGeometry>
        </mxCell>
        <mxCell id="DPA5Kg4C4uu_E68mrYAT-79" value="M" style="resizable=0;html=1;align=right;verticalAlign=bottom;" connectable="0" vertex="1" parent="DPA5Kg4C4uu_E68mrYAT-78">
          <mxGeometry x="1" relative="1" as="geometry">
            <mxPoint x="20" y="20" as="offset" />
          </mxGeometry>
        </mxCell>
        <mxCell id="DPA5Kg4C4uu_E68mrYAT-81" value="dep/arr" style="shape=rhombus;perimeter=rhombusPerimeter;whiteSpace=wrap;html=1;align=center;" vertex="1" parent="1">
          <mxGeometry x="220" y="240" width="120" height="60" as="geometry" />
        </mxCell>
        <mxCell id="DPA5Kg4C4uu_E68mrYAT-82" value="" style="endArrow=none;html=1;rounded=0;dashed=1;dashPattern=1 2;exitX=1;exitY=0.5;exitDx=0;exitDy=0;entryX=0;entryY=0.5;entryDx=0;entryDy=0;" edge="1" parent="1" source="DPA5Kg4C4uu_E68mrYAT-12" target="DPA5Kg4C4uu_E68mrYAT-81">
          <mxGeometry relative="1" as="geometry">
            <mxPoint x="110" y="150" as="sourcePoint" />
            <mxPoint x="190" y="100" as="targetPoint" />
          </mxGeometry>
        </mxCell>
        <mxCell id="DPA5Kg4C4uu_E68mrYAT-83" value="M" style="resizable=0;html=1;align=right;verticalAlign=bottom;" connectable="0" vertex="1" parent="DPA5Kg4C4uu_E68mrYAT-82">
          <mxGeometry x="1" relative="1" as="geometry">
            <mxPoint x="-30" y="10" as="offset" />
          </mxGeometry>
        </mxCell>
        <mxCell id="DPA5Kg4C4uu_E68mrYAT-84" value="" style="endArrow=none;html=1;rounded=0;entryX=1;entryY=0.5;entryDx=0;entryDy=0;exitX=0;exitY=1;exitDx=0;exitDy=0;" edge="1" parent="1" source="DPA5Kg4C4uu_E68mrYAT-52" target="DPA5Kg4C4uu_E68mrYAT-81">
          <mxGeometry relative="1" as="geometry">
            <mxPoint x="290" y="-100" as="sourcePoint" />
            <mxPoint x="290" y="-50" as="targetPoint" />
          </mxGeometry>
        </mxCell>
        <mxCell id="DPA5Kg4C4uu_E68mrYAT-85" value="1" style="resizable=0;html=1;align=right;verticalAlign=bottom;" connectable="0" vertex="1" parent="DPA5Kg4C4uu_E68mrYAT-84">
          <mxGeometry x="1" relative="1" as="geometry">
            <mxPoint x="20" y="-30" as="offset" />
          </mxGeometry>
        </mxCell>
        <mxCell id="DPA5Kg4C4uu_E68mrYAT-86" value="purchase" style="shape=rhombus;perimeter=rhombusPerimeter;whiteSpace=wrap;html=1;align=center;" vertex="1" parent="1">
          <mxGeometry x="480" y="240" width="120" height="60" as="geometry" />
        </mxCell>
        <mxCell id="DPA5Kg4C4uu_E68mrYAT-87" value="" style="endArrow=none;html=1;rounded=0;entryX=0.5;entryY=0;entryDx=0;entryDy=0;exitX=1;exitY=1;exitDx=0;exitDy=0;" edge="1" parent="1" source="DPA5Kg4C4uu_E68mrYAT-15" target="DPA5Kg4C4uu_E68mrYAT-86">
          <mxGeometry relative="1" as="geometry">
            <mxPoint x="390" y="220" as="sourcePoint" />
            <mxPoint x="350" y="280" as="targetPoint" />
          </mxGeometry>
        </mxCell>
        <mxCell id="DPA5Kg4C4uu_E68mrYAT-88" value="1" style="resizable=0;html=1;align=right;verticalAlign=bottom;" connectable="0" vertex="1" parent="DPA5Kg4C4uu_E68mrYAT-87">
          <mxGeometry x="1" relative="1" as="geometry">
            <mxPoint y="-50" as="offset" />
          </mxGeometry>
        </mxCell>
        <mxCell id="DPA5Kg4C4uu_E68mrYAT-89" value="" style="endArrow=none;html=1;rounded=0;dashed=1;dashPattern=1 2;exitX=1;exitY=0;exitDx=0;exitDy=0;entryX=0.5;entryY=1;entryDx=0;entryDy=0;" edge="1" parent="1" source="DPA5Kg4C4uu_E68mrYAT-86" target="DPA5Kg4C4uu_E68mrYAT-19">
          <mxGeometry relative="1" as="geometry">
            <mxPoint x="610" y="290" as="sourcePoint" />
            <mxPoint x="690" y="240" as="targetPoint" />
          </mxGeometry>
        </mxCell>
        <mxCell id="DPA5Kg4C4uu_E68mrYAT-90" value="M" style="resizable=0;html=1;align=right;verticalAlign=bottom;" connectable="0" vertex="1" parent="DPA5Kg4C4uu_E68mrYAT-89">
          <mxGeometry x="1" relative="1" as="geometry">
            <mxPoint x="-30" y="30" as="offset" />
          </mxGeometry>
        </mxCell>
        <mxCell id="DPA5Kg4C4uu_E68mrYAT-91" value="" style="endArrow=none;html=1;rounded=0;exitX=0.5;exitY=1;exitDx=0;exitDy=0;entryX=0.5;entryY=0;entryDx=0;entryDy=0;" edge="1" parent="1" source="DPA5Kg4C4uu_E68mrYAT-86" target="DPA5Kg4C4uu_E68mrYAT-13">
          <mxGeometry relative="1" as="geometry">
            <mxPoint x="110" y="210" as="sourcePoint" />
            <mxPoint x="110" y="250" as="targetPoint" />
          </mxGeometry>
        </mxCell>
        <mxCell id="DPA5Kg4C4uu_E68mrYAT-92" value="M" style="resizable=0;html=1;align=right;verticalAlign=bottom;" connectable="0" vertex="1" parent="DPA5Kg4C4uu_E68mrYAT-91">
          <mxGeometry x="1" relative="1" as="geometry">
            <mxPoint y="-20" as="offset" />
          </mxGeometry>
        </mxCell>
        <mxCell id="DPA5Kg4C4uu_E68mrYAT-95" value="has" style="shape=rhombus;perimeter=rhombusPerimeter;whiteSpace=wrap;html=1;align=center;" vertex="1" parent="1">
          <mxGeometry x="80" y="-60" width="120" height="60" as="geometry" />
        </mxCell>
        <mxCell id="DPA5Kg4C4uu_E68mrYAT-96" value="" style="endArrow=none;html=1;rounded=0;exitX=0;exitY=1;exitDx=0;exitDy=0;" edge="1" parent="1" source="DPA5Kg4C4uu_E68mrYAT-95">
          <mxGeometry relative="1" as="geometry">
            <mxPoint x="-20" y="110" as="sourcePoint" />
            <mxPoint x="80" y="20" as="targetPoint" />
          </mxGeometry>
        </mxCell>
        <mxCell id="DPA5Kg4C4uu_E68mrYAT-97" value="1" style="resizable=0;html=1;align=right;verticalAlign=bottom;" connectable="0" vertex="1" parent="DPA5Kg4C4uu_E68mrYAT-96">
          <mxGeometry x="1" relative="1" as="geometry">
            <mxPoint x="20" y="-10" as="offset" />
          </mxGeometry>
        </mxCell>
        <mxCell id="DPA5Kg4C4uu_E68mrYAT-99" value="" style="endArrow=none;html=1;rounded=0;entryX=0.5;entryY=0;entryDx=0;entryDy=0;exitX=1;exitY=1;exitDx=0;exitDy=0;" edge="1" parent="1" source="DPA5Kg4C4uu_E68mrYAT-95" target="DPA5Kg4C4uu_E68mrYAT-11">
          <mxGeometry relative="1" as="geometry">
            <mxPoint x="290" y="-100" as="sourcePoint" />
            <mxPoint x="290" y="-50" as="targetPoint" />
          </mxGeometry>
        </mxCell>
        <mxCell id="DPA5Kg4C4uu_E68mrYAT-100" value="M" style="resizable=0;html=1;align=right;verticalAlign=bottom;" connectable="0" vertex="1" parent="DPA5Kg4C4uu_E68mrYAT-99">
          <mxGeometry x="1" relative="1" as="geometry">
            <mxPoint x="-20" y="-40" as="offset" />
          </mxGeometry>
        </mxCell>
        <mxCell id="DPA5Kg4C4uu_E68mrYAT-101" value="involves" style="shape=rhombus;perimeter=rhombusPerimeter;whiteSpace=wrap;html=1;align=center;" vertex="1" parent="1">
          <mxGeometry x="80" y="-150" width="120" height="60" as="geometry" />
        </mxCell>
        <mxCell id="DPA5Kg4C4uu_E68mrYAT-102" value="" style="endArrow=none;html=1;rounded=0;dashed=1;dashPattern=1 2;entryX=1;entryY=0.5;entryDx=0;entryDy=0;exitX=0;exitY=0.5;exitDx=0;exitDy=0;" edge="1" parent="1" source="DPA5Kg4C4uu_E68mrYAT-14" target="DPA5Kg4C4uu_E68mrYAT-101">
          <mxGeometry relative="1" as="geometry">
            <mxPoint x="390" y="45" as="sourcePoint" />
            <mxPoint x="340" y="-100" as="targetPoint" />
          </mxGeometry>
        </mxCell>
        <mxCell id="DPA5Kg4C4uu_E68mrYAT-103" value="1" style="resizable=0;html=1;align=right;verticalAlign=bottom;" connectable="0" vertex="1" parent="DPA5Kg4C4uu_E68mrYAT-102">
          <mxGeometry x="1" relative="1" as="geometry">
            <mxPoint x="20" y="10" as="offset" />
          </mxGeometry>
        </mxCell>
        <mxCell id="DPA5Kg4C4uu_E68mrYAT-104" value="" style="endArrow=none;html=1;rounded=0;exitX=0;exitY=0.5;exitDx=0;exitDy=0;entryX=0;entryY=0;entryDx=0;entryDy=0;" edge="1" parent="1" source="DPA5Kg4C4uu_E68mrYAT-101" target="DPA5Kg4C4uu_E68mrYAT-40">
          <mxGeometry relative="1" as="geometry">
            <mxPoint x="120" y="-5" as="sourcePoint" />
            <mxPoint x="90" y="30" as="targetPoint" />
          </mxGeometry>
        </mxCell>
        <mxCell id="DPA5Kg4C4uu_E68mrYAT-105" value="1" style="resizable=0;html=1;align=right;verticalAlign=bottom;" connectable="0" vertex="1" parent="DPA5Kg4C4uu_E68mrYAT-104">
          <mxGeometry x="1" relative="1" as="geometry">
            <mxPoint x="30" y="-60" as="offset" />
          </mxGeometry>
        </mxCell>
        <mxCell id="DPA5Kg4C4uu_E68mrYAT-106" value="involves" style="shape=rhombus;perimeter=rhombusPerimeter;whiteSpace=wrap;html=1;align=center;" vertex="1" parent="1">
          <mxGeometry x="10" y="320" width="120" height="60" as="geometry" />
        </mxCell>
        <mxCell id="DPA5Kg4C4uu_E68mrYAT-107" value="" style="endArrow=none;html=1;rounded=0;exitX=0;exitY=1;exitDx=0;exitDy=0;entryX=0;entryY=0.5;entryDx=0;entryDy=0;" edge="1" parent="1" source="DPA5Kg4C4uu_E68mrYAT-40" target="DPA5Kg4C4uu_E68mrYAT-106">
          <mxGeometry relative="1" as="geometry">
            <mxPoint x="90" y="-110" as="sourcePoint" />
            <mxPoint x="20" y="220" as="targetPoint" />
          </mxGeometry>
        </mxCell>
        <mxCell id="DPA5Kg4C4uu_E68mrYAT-108" value="1" style="resizable=0;html=1;align=right;verticalAlign=bottom;" connectable="0" vertex="1" parent="DPA5Kg4C4uu_E68mrYAT-107">
          <mxGeometry x="1" relative="1" as="geometry">
            <mxPoint x="20" y="-140" as="offset" />
          </mxGeometry>
        </mxCell>
        <mxCell id="DPA5Kg4C4uu_E68mrYAT-109" value="" style="endArrow=none;html=1;rounded=0;dashed=1;dashPattern=1 2;exitX=0.5;exitY=1;exitDx=0;exitDy=0;entryX=0.5;entryY=0;entryDx=0;entryDy=0;" edge="1" parent="1" source="DPA5Kg4C4uu_E68mrYAT-12" target="DPA5Kg4C4uu_E68mrYAT-106">
          <mxGeometry relative="1" as="geometry">
            <mxPoint x="160" y="270" as="sourcePoint" />
            <mxPoint x="230" y="280" as="targetPoint" />
          </mxGeometry>
        </mxCell>
        <mxCell id="DPA5Kg4C4uu_E68mrYAT-110" value="M" style="resizable=0;html=1;align=right;verticalAlign=bottom;" connectable="0" vertex="1" parent="DPA5Kg4C4uu_E68mrYAT-109">
          <mxGeometry x="1" relative="1" as="geometry">
            <mxPoint x="20" y="-10" as="offset" />
          </mxGeometry>
        </mxCell>
      </root>
    </mxGraphModel>
  </diagram>
</mxfile>
